<?xml version="1.0" encoding="utf-8"?>
<!-- Generator: Adobe Illustrator 19.0.0, SVG Export Plug-In . SVG Version: 6.00 Build 0)  -->
<svg version="1.1" id="Layer_1" xmlns="http://www.w3.org/2000/svg" xmlns:xlink="http://www.w3.org/1999/xlink" x="0px" y="0px"
	 viewBox="0 0 314.1 403.3" style="enable-background:new 0 0 314.1 403.3;" xml:space="preserve">
<g id="XMLID_28_">
	<path id="XMLID_114_" d="M56.4,1.8c0,7.4,0.2,14.5-0.1,21.6c-0.2,4.8,1.2,6.9,6.4,6.6C70,29.7,77.3,30,85.4,30c0-9.7,0-18.8,0-28.3
		c9.7,0,18.7,0,28.4,0c0,9,0,18.1,0,28.2c9.3,0,17.8,0.2,26.3-0.2c1.2-0.1,3-3.1,3.1-4.9c0.3-7.5,0.1-15.1,0.1-23c9.3,0,18,0,27.7,0
		c0,7.3,0.3,14.6-0.1,21.8c-0.2,5,1.6,6.7,6.5,6.5c7.3-0.3,14.6-0.1,22.7-0.1c0-9.8,0-18.9,0-28.3c9.7,0,18.7,0,28.4,0
		c0,9.1,0,18.3,0,28.2c9.3,0,17.9,0.2,26.4-0.2c1.1-0.1,2.9-3.2,3-5c0.3-7.5,0.1-15,0.1-22.9c9.4,0,18.1,0,27.7,0
		c0,7.7,0.1,15.2,0,22.7c-0.1,3.7,1,5.4,5.1,6.1c14.2,2.3,23.6,13.9,23.6,28.4c0,104.6,0,209.3,0,313.9c0,16.9-12.1,28.9-29,28.9
		c-85.5,0-171,0-256.6,0c-16.9,0-28.9-12.1-28.9-29C0,268.2,0,163.8,0,59.3c0-15.3,9-26.3,24.3-29c3.6-0.7,4.5-2.2,4.4-5.4
		c-0.1-7.5,0-15.1,0-23.1C37.9,1.8,46.5,1.8,56.4,1.8z M290,215.5c0-47,0-94.1,0-141.1c0-12.7-4.3-17-17-17c-77.1,0-154.2,0-231.2,0
		c-12.8,0-17.2,4.3-17.2,16.9c0,94.1,0,188.2,0,282.3c0,12.3,4.4,16.6,16.7,16.6c77.1,0,154.2,0,231.2,0c13.5,0,17.5-4.1,17.5-17.7
		C290,308.7,290,262.1,290,215.5z"/>
	<path id="XMLID_103_" d="M194.4,113.9c-20.6,0-41.1-0.1-61.7,0.1c-4.9,0.1-6.6-1.3-6.5-6.4c0.1-17.8-0.1-17.8,17.7-17.8
		c37.6,0,75.1,0.1,112.7-0.1c5.7,0,7.6,1.4,7.5,7.4c-0.3,16.9-0.1,16.9-16.7,16.9C229.7,113.9,212,113.9,194.4,113.9z"/>
	<path id="XMLID_102_" d="M194.5,189.5c-20.6,0-41.1-0.1-61.7,0.1c-4.8,0-6.6-1.1-6.6-6.3c0-17.9-0.2-17.9,17.6-17.9
		c37.8,0,75.6,0.1,113.3-0.1c5,0,7.5,1.1,6.9,6.6c-0.4,3.9-0.3,8,0,11.9c0.3,4.5-1.6,5.8-5.9,5.7
		C236.9,189.4,215.7,189.5,194.5,189.5z"/>
	<path id="XMLID_101_" d="M194.7,265.1c-20.8,0-41.6-0.1-62.3,0.1c-4.6,0-6.2-1.4-6.2-6.1c-0.1-18.1-0.2-18.1,18-18.1
		c37.6,0,75.1,0.1,112.7-0.1c5.5,0,7.2,1.5,7.1,7.1c-0.2,17.2,0,17.2-17.1,17.2C229.5,265.2,212.1,265.2,194.7,265.1z"/>
	<path id="XMLID_100_" d="M194.6,340.8c-20.6,0-41.1-0.2-61.7,0.1c-5.3,0.1-6.8-1.7-6.7-6.8c0.1-17.4,0-17.4,17.5-17.4
		c37.8,0,75.6,0.1,113.3-0.1c5.6,0,7.1,1.7,7,7.2c-0.2,17.1,0,17.1-17.2,17.1C229.4,340.8,212,340.8,194.6,340.8z"/>
	<path id="XMLID_99_" d="M66.2,127.6c-6.6-6.6-13.6-13.7-20.9-21c3.5-3.4,7.4-7.1,11.7-11.3c2.9,2.7,5.9,5.4,9.3,8.5
		c8.6-9.2,17-18.1,26-27.6c5,5.7,8.7,9.8,11.9,13.5C91.7,102,78.8,114.9,66.2,127.6z"/>
	<path id="XMLID_98_" d="M104.1,165.3c-12.4,12.7-25.2,25.6-37.6,38.2c-6.9-6.9-13.9-13.9-21.2-21.3c3.5-3.3,7.4-7,11.7-11.2
		c2.8,2.6,5.9,5.3,9.6,8.7c8.4-9.3,16.7-18.4,25.5-28.1C97.2,157.4,100.8,161.6,104.1,165.3z"/>
	<path id="XMLID_97_" d="M66.3,279.6c-7.1-7.1-13.9-14.1-21.4-21.6c3.9-3.3,8.2-6.9,12.7-10.8c-0.4-0.1,0.1-0.1,0.4,0.1
		c9.1,7.7,9.1,7.7,17.4-0.6c5.9-5.9,11.7-11.9,17.8-18.2c4.5,4.5,8.4,8.4,11.9,11.9C92,253.6,79.2,266.5,66.3,279.6z"/>
	<path id="XMLID_96_" d="M66.2,355c-6.7-6.8-13.6-13.8-21-21.4c3.6-3.1,7.8-6.8,12.4-10.8c2.4,2.2,5.4,4.9,8.6,7.9
		c8.8-9.1,17.4-18,26.3-27.2c4.8,5.3,8.6,9.3,12,13C91.9,329,79.2,341.9,66.2,355z"/>
</g>
</svg>
