<?xml version="1.0" encoding="utf-8"?>
<!-- Generator: Adobe Illustrator 19.0.0, SVG Export Plug-In . SVG Version: 6.00 Build 0)  -->
<svg version="1.1" id="Layer_1" xmlns="http://www.w3.org/2000/svg" xmlns:xlink="http://www.w3.org/1999/xlink" x="0px" y="0px"
	 viewBox="0 0 401.5 403.3" style="enable-background:new 0 0 401.5 403.3;" xml:space="preserve">
<g id="XMLID_15_">
	<path id="XMLID_28_" d="M371.4,0H28.6C12.8,0,0,12.8,0,28.6v342.9C0,387.2,12.8,400,28.6,400h342.9c15.8,0,28.6-12.8,28.6-28.6
		V28.6C400,12.8,387.2,0,371.4,0z M285.7,28.6v125.2l-15.8-7.9c-4-2-8.4-3-12.8-3c-4.4,0-8.8,1-12.8,3l-15.8,7.9V28.6H285.7z
		 M371.4,371.4H28.6V28.6H200V200l57.1-28.6L310,200V28.6h61.4V371.4z"/>
</g>
</svg>
