<?xml version="1.0" encoding="utf-8"?>
<!-- Generator: Adobe Illustrator 19.0.0, SVG Export Plug-In . SVG Version: 6.00 Build 0)  -->
<svg version="1.1" id="Layer_1" xmlns="http://www.w3.org/2000/svg" xmlns:xlink="http://www.w3.org/1999/xlink" x="0px" y="0px"
	 viewBox="0 0 401.5 341.9" style="enable-background:new 0 0 401.5 341.9;" xml:space="preserve">
<style type="text/css">
	.st0{fill:#FFFFFF;}
</style>
<g id="XMLID_2_">
	<path id="XMLID_39_" d="M233.3,186c14.4-14.4,28.6-28.7,42.7-42.8c11.2,11.2,21.9,22.1,32.9,33.1c-0.4,0.4-1.3,1.4-2.2,2.3
		c-18.2,18.2-36.3,36.3-54.5,54.5c-11.7,11.7-25.9,11.7-37.7-0.1c-9.3-9.2-18.5-18.4-27.7-27.7c-0.9-0.9-1.9-1.8-3.7-3.4
		c0,2.6,0,4.3,0,6c0,34.9,0,69.9,0,104.8c0,16.8-9.9,26.7-26.6,26.7c-19.4,0-38.9,0-58.3,0c-15.7,0-26-10.3-26.1-26.1
		c0-7.6,0-15.1,0-23.5c-2.3,2.1-3.9,3.6-5.9,5.4c-1-0.9-2-1.8-2.9-2.7c-18.1-18.1-36.2-36.1-54.2-54.2C-3.1,226.1-3,212,9.4,199.8
		c22-21.7,44-43.3,65.8-65.1c6.2-6.2,13.1-9.1,21.8-9c21.3,0.3,42.7,0.2,64,0.1c7.5,0,13.7,2.7,19,7.9
		c16.8,16.7,33.7,33.2,50.6,49.8C231.4,184.3,232.3,185.1,233.3,186z M111.8,319.6c20.4,0,39.2,0,58.1,0c0-32.6,0-64.9,0-97.3
		c-19,0-37.8,0-56.5,0c-0.2,0.6-0.3,0.8-0.3,1.1c0,14,0.3,28-0.2,42c-0.2,7.1,1.3,12.3,6.7,17.5c10.6,10.1,8.1,24.8-4.4,32.3
		C114,315.9,113.3,317.6,111.8,319.6z M71.9,203.9c-5.3,5.3-10.4,10.5-15,15c4.8,4.9,9.9,10.1,15,15.2
		C71.9,224.2,71.9,214.1,71.9,203.9z"/>
	<path id="XMLID_38_" d="M176.6,64.2c-0.1,26-21.2,46.9-47.1,46.8c-25.7-0.2-46.8-21.3-46.7-46.9c0.1-26.1,21.2-47,47.4-46.9
		C155.9,17.3,176.7,38.4,176.6,64.2z"/>
	<path id="XMLID_37_" d="M318.1,163.8c-9.4-9.5-18.6-18.7-28.3-28.5c5.9-5.5,11.6-11.7,18.1-16.8c2.8-2.2,7.3-3.1,11.1-3.1
		c3.3,0,4.7-1.2,6.1-3.8c19.4-35.6,39-71.2,58.3-106.9c3.4-6.3,10-5.6,13.6-2.4c3.5,3.1,4,6.2,1.4,10.9
		c-19.9,36.3-39.7,72.6-59.6,108.9c-1.4,2.6-2,4.8-1.1,7.9c2.1,7,0.3,13.5-4.7,18.8C328.2,154,323.2,158.8,318.1,163.8z"/>
	<path id="XMLID_35_" class="st0" d="M71.9,203.9c0,10.2,0,20.3,0,30.2c-5-5.1-10.1-10.3-15-15.2C61.5,214.4,66.6,209.2,71.9,203.9z
		"/>
</g>
</svg>
