<?xml version="1.0" encoding="utf-8"?>
<!-- Generator: Adobe Illustrator 19.0.0, SVG Export Plug-In . SVG Version: 6.00 Build 0)  -->
<svg version="1.1" id="Layer_1" xmlns="http://www.w3.org/2000/svg" xmlns:xlink="http://www.w3.org/1999/xlink" x="0px" y="0px"
	 viewBox="-278 110.1 401.5 341.9" style="enable-background:new -278 110.1 401.5 341.9;" xml:space="preserve">
<g id="XMLID_2_">
	<path id="XMLID_39_" d="M-44.7,296.1c14.4-14.4,28.6-28.7,42.7-42.8c11.2,11.2,21.9,22.1,32.9,33.1c-0.4,0.4-1.3,1.4-2.2,2.3
		C10.5,306.9-7.6,325-25.8,343.2c-11.7,11.7-25.9,11.7-37.7-0.1c-9.3-9.2-18.5-18.4-27.7-27.7c-0.9-0.9-1.9-1.8-3.7-3.4
		c0,2.6,0,4.3,0,6c0,34.9,0,69.9,0,104.8c0,16.8-9.9,26.7-26.6,26.7c-19.4,0-38.9,0-58.3,0c-15.7,0-26-10.3-26.1-26.1
		c0-7.6,0-15.1,0-23.5c-2.3,2.1-3.9,3.6-5.9,5.4c-1-0.9-2-1.8-2.9-2.7c-18.1-18.1-36.2-36.1-54.2-54.2
		c-12.2-12.2-12.1-26.3,0.3-38.5c22-21.7,44-43.3,65.8-65.1c6.2-6.2,13.1-9.1,21.8-9c21.3,0.3,42.7,0.2,64,0.1
		c7.5,0,13.7,2.7,19,7.9c16.8,16.7,33.7,33.2,50.6,49.8C-46.6,294.4-45.7,295.2-44.7,296.1z M-166.2,429.7c20.4,0,39.2,0,58.1,0
		c0-32.6,0-64.9,0-97.3c-19,0-37.8,0-56.5,0c-0.2,0.6-0.3,0.8-0.3,1.1c0,14,0.3,28-0.2,42c-0.2,7.1,1.3,12.3,6.7,17.5
		c10.6,10.1,8.1,24.8-4.4,32.3C-164,426-164.7,427.7-166.2,429.7z M-206.1,314c-5.3,5.3-10.4,10.5-15,15c4.8,4.9,9.9,10.1,15,15.2
		C-206.1,334.3-206.1,324.2-206.1,314z"/>
	<path id="XMLID_38_" d="M-101.4,174.3c-0.1,26-21.2,46.9-47.1,46.8c-25.7-0.2-46.8-21.3-46.7-46.9c0.1-26.1,21.2-47,47.4-46.9
		C-122.1,127.4-101.3,148.5-101.4,174.3z"/>
	<path id="XMLID_37_" d="M40.1,273.9c-9.4-9.5-18.6-18.7-28.3-28.5c5.9-5.5,11.6-11.7,18.1-16.8c2.8-2.2,7.3-3.1,11.1-3.1
		c3.3,0,4.7-1.2,6.1-3.8c19.4-35.6,39-71.2,58.3-106.9c3.4-6.3,10-5.6,13.6-2.4c3.5,3.1,4,6.2,1.4,10.9
		c-19.9,36.3-39.7,72.6-59.6,108.9c-1.4,2.6-2,4.8-1.1,7.9c2.1,7,0.3,13.5-4.7,18.8C50.2,264.1,45.2,268.9,40.1,273.9z"/>
</g>
</svg>
