<?xml version="1.0" encoding="utf-8"?>
<!-- Generator: Adobe Illustrator 19.0.0, SVG Export Plug-In . SVG Version: 6.00 Build 0)  -->
<svg version="1.1" id="Layer_1" xmlns="http://www.w3.org/2000/svg" xmlns:xlink="http://www.w3.org/1999/xlink" x="0px" y="0px"
	 viewBox="0 0 342.6 366.5" style="enable-background:new 0 0 342.6 366.5;" xml:space="preserve">
<style type="text/css">
	.st0{fill:#FFFFFF;}
</style>
<g id="XMLID_2_">
	<path id="XMLID_16_" class="st0" d="M160.7,365.2c-6.5-0.9-13.1-1.6-19.6-2.8C87.6,351.9,47.7,322.6,21.5,275
		C6.9,248.4,0.4,219.5,1.7,189.2C3.9,141.5,22.8,101.4,58,69.1c9.4-8.6,23.1-8.9,32.1-1c9.7,8.4,11.7,21.4,4.6,32
		c-1.7,2.5-3.9,4.8-6.1,6.9c-17.5,16.5-29.3,36.5-34.9,59.8c-6.4,26.5-4.3,52.4,6.8,77.4c12.7,28.7,33.7,49.5,62.3,62.3
		c17.1,7.6,35.1,10.9,53.9,10c22.1-1,42.3-7.4,60.7-19.4c21.3-13.9,36.8-32.8,46.4-56.4c7.4-18.2,10.1-37.2,8.2-56.7
		c-2.2-22.6-10-43.3-23.9-61.3c-5.5-7.1-12.1-13.3-18.1-20c-6.4-7.3-8-15.8-4.3-24.8c6.5-16.2,26.2-20.4,39.3-8.4
		c28.5,26,46.6,58,53.3,96c15,84.6-33.9,165.6-115.7,192.1c-12.2,3.9-24.7,6.4-37.5,7.3c-1,0.1-2,0.4-3.1,0.6
		C174.9,365.2,167.8,365.2,160.7,365.2z"/>
	<path id="XMLID_15_" class="st0" d="M174.9,1.3c7.7,2,14.5,5.6,17.8,13.3c1.6,3.6,2.7,7.7,2.7,11.6c0.2,40,0.2,80,0.1,120
		c0,14.2-10.6,24.9-24.2,24.9c-13.5,0-24.2-10.8-24.2-24.9c-0.1-40-0.1-80,0-120c0-12.1,7-20.9,18.7-24.1c0.7-0.2,1.3-0.5,2-0.7
		C170.2,1.3,172.6,1.3,174.9,1.3z"/>
</g>
</svg>
