<?xml version="1.0" encoding="utf-8"?>
<!-- Generator: Adobe Illustrator 19.0.0, SVG Export Plug-In . SVG Version: 6.00 Build 0)  -->
<svg version="1.1" id="Layer_1" xmlns="http://www.w3.org/2000/svg" xmlns:xlink="http://www.w3.org/1999/xlink" x="0px" y="0px"
	 viewBox="0 0 320.5 403.3" style="enable-background:new 0 0 320.5 403.3;" xml:space="preserve">
<g id="XMLID_54_">
	<path id="XMLID_108_" d="M318.8,401.6c-106.3,0-212.5,0-318.8,0c0.1-1.5,0.3-3.1,0.3-4.6c0-130.2,0-260.5,0-390.7
		c0-1.5-0.2-3.1-0.3-4.6c71.9,0,143.8,0,215.6,0c0.9,1.1,1.7,2.2,2.7,3.2c32.3,32.3,64.6,64.7,97,96.9c2.3,2.3,3.2,4.6,3.2,7.8
		c-0.1,95.5-0.1,191.1-0.1,286.6C318.5,398,318.6,399.8,318.8,401.6z M287.1,127.1c-2,0-3.5,0-5.1,0c-23.3,0-46.6,0-69.9,0
		c-13.3,0-19.1-5.7-19.1-18.9c0-23.7,0-47.4,0-71.1c0-1.4,0-2.7,0-4c-54.1,0-107.6,0-161.2,0c0,112.5,0,224.8,0,337
		c85.2,0,170.2,0,255.2,0C287.1,289.1,287.1,208.4,287.1,127.1z M224.3,95.6c13.5,0,26.6,0,38.8,0c-12.8-12.8-26-26-38.8-38.8
		C224.3,69.1,224.3,82.2,224.3,95.6z"/>
	<path id="XMLID_98_" d="M179.1,256.9c-12.1-12.1-23.5-23.6-34.8-34.8c-20.8,20.8-41.5,41.5-61.9,61.9c-5.4-5.4-10.2-10.2-14.6-14.6
		c25.2-25.2,50.7-50.7,76.4-76.4c11,11.1,22.5,22.6,33.7,33.8c14.9-14.9,29.4-29.4,44.1-44.1c-3.2,0-6.5,0-10.1,0c0-7,0-13.6,0-20.5
		c15.3,0,30.7,0,46.4,0c0,15.3,0,30.7,0,46.4c-6.6,0-13.3,0-20.4,0c0-3.3,0-6.6,0-10.3C218.1,217.9,198.6,237.4,179.1,256.9z"/>
	<path id="XMLID_97_" d="M248.6,311.8c0,6.8,0,13.4,0,20.2c-59.4,0-118.7,0-178.4,0c0-6.7,0-13.4,0-20.2
		C129.7,311.8,189,311.8,248.6,311.8z"/>
	<path id="XMLID_96_" d="M70.2,71.1c35.2,0,70.3,0,105.6,0c0,6.8,0,13.4,0,20.2c-35.2,0-70.2,0-105.6,0C70.2,84.7,70.2,78,70.2,71.1
		z"/>
	<path id="XMLID_95_" d="M70.2,136.8c0-6.7,0-13.3,0-20.2c35.2,0,70.2,0,105.6,0c0,6.6,0,13.3,0,20.2
		C140.6,136.8,105.5,136.8,70.2,136.8z"/>
</g>
</svg>
