<?xml version="1.0" encoding="utf-8"?>
<!-- Generator: Adobe Illustrator 19.0.0, SVG Export Plug-In . SVG Version: 6.00 Build 0)  -->
<svg version="1.1" id="Layer_1" xmlns="http://www.w3.org/2000/svg" xmlns:xlink="http://www.w3.org/1999/xlink" x="0px" y="0px"
	 viewBox="0 0 250.2 253.9" style="enable-background:new 0 0 250.2 253.9;" xml:space="preserve">
<style type="text/css">
	.st0{fill:#FFFFFF;}
</style>
<g id="XMLID_2_">
	<path id="XMLID_52_" class="st0" d="M0,126.8C0,90,0,53.1,0,16.3C0,5.1,5,0,16,0c67.8,0,135.6,0,203.4,0c4.1,0,7.1,1,10,4
		c5.6,6.1,11.8,11.7,17.4,17.8c1.7,1.8,3.1,4.8,3.1,7.2C250,99,250,168.9,250,238.8c0,9.2-5.7,14.6-15.4,14.6
		c-62.6,0-125.3,0-187.9,0c-10.4,0-20.9,0-31.3,0C5.2,253.4,0,248.2,0,238.1C0,201,0,163.9,0,126.8C0,126.8,0,126.8,0,126.8z
		 M36.3,241.5c0-1.8,0-3,0-4.3c0-34.5,0-68.9,0-103.4c0-10.4,5.3-15.7,15.8-15.7c48.4,0,96.8,0,145.2,0c11.5,0,16.5,5,16.5,16.5
		c0,33.8,0,67.7,0,101.5c0,1.6,0,3.2,0,5.4c6.5,0,12.6,0,18.7,0c5.3,0,5.3,0,5.3-5.1c0-64.3-0.2-128.5,0.2-192.8
		c0.1-10.2-2.4-17.5-10-24.5c-6.1-5.6-11.6-9.2-20-8.1c-4.8,0.6-9.7,0.1-14.7,0.1c0,2,0,3.4,0,4.8c0,21.4,0,42.8,0,64.1
		c0,4.1-1.1,7.7-4,10.6c-3,3-6.7,4-11,4c-35.3-0.1-70.7,0-106,0c-10.9,0-16.2-5.3-16.2-16.2c0-21,0-42,0-63c0-1.3-0.1-2.7-0.2-4.3
		c-1.6,0-2.8,0-4.1,0c-11.8,0-23.6,0-35.5,0c-5.4,0-5.4,0-5.4,5.4c0,71.7,0,143.4,0,215c0,2.4-0.2,4.8,0.1,7.2
		c0.1,1,1.5,2.6,2.3,2.6C21,241.6,28.4,241.5,36.3,241.5z M202.2,241.3c0.1-0.7,0.2-1.2,0.2-1.7c0-35.3,0-70.7,0.1-106
		c0-3.6-1.9-3.7-4.6-3.7c-48.4,0-96.8,0.1-145.2,0c-3.7,0-5,0.9-5,4.8c0.1,34.3,0.1,68.7,0.1,103c0,1.2,0.1,2.4,0.2,3.6
		C99.7,241.3,150.9,241.3,202.2,241.3z M68.3,11.4c0,1.6,0,2.7,0,3.8c0,21,0,42,0,63c0,4.9,0.1,5,5.2,5c34.7,0,69.4,0,104.1,0.1
		c3.5,0,4.8-0.9,4.8-4.6c-0.2-21-0.1-42-0.1-63c0-1.3,0-2.7,0-4.2C144.1,11.4,106.5,11.4,68.3,11.4z"/>
	<path id="XMLID_44_" class="st0" d="M120.2,47.2c0-4.1-0.1-8.3,0-12.4c0.1-7.4,5.7-13.2,13-13.3c6.6-0.1,13.3-0.1,20,0
		c7.4,0.2,13,5.7,13.2,13.2c0.2,8.5,0.2,17.1,0,25.6c-0.1,7.3-5.8,13-13.2,13.3c-6.5,0.2-13.1,0.2-19.6,0
		c-7.8-0.2-13.3-6.1-13.4-13.8C120.1,55.5,120.2,51.3,120.2,47.2z M154.9,47.6C154.9,47.6,154.9,47.6,154.9,47.6c0-3.9,0-7.8,0-11.7
		c0-2.2-0.9-3.2-3.1-3.1c-5.6,0.1-11.3,0.1-16.9,0c-2.5,0-3.2,1.2-3.2,3.5c0.1,7.4,0.1,14.8,0,22.2c0,2.5,1,3.3,3.4,3.3
		c5.5-0.1,11-0.1,16.6,0c2.7,0,3.5-1.2,3.4-3.7C154.8,54.7,154.9,51.1,154.9,47.6z"/>
</g>
</svg>
