<?xml version="1.0" encoding="utf-8"?>
<!-- Generator: Adobe Illustrator 19.0.0, SVG Export Plug-In . SVG Version: 6.00 Build 0)  -->
<svg version="1.1" id="Layer_1" xmlns="http://www.w3.org/2000/svg" xmlns:xlink="http://www.w3.org/1999/xlink" x="0px" y="0px"
	 viewBox="0 0 401.5 285.5" style="enable-background:new 0 0 401.5 285.5;" xml:space="preserve">
<g id="XMLID_15_">
	<path id="XMLID_40_" d="M126.7,57.8c24.9-18.2,49.6-36.3,74.5-54.6c9.7,7.2,19.1,15,29.3,21.3c8.7,5.3,11.9,11.7,10.9,21.7
		c-1,9.8,0.8,19.8-0.5,29.5c-1.1,7.4-1.7,14.7-1.8,22.2c0,5.3,1.5,6.7,6.8,5.7c1.3-0.3,3.1-2,3.1-3.2c0.3-5.6,1.3-11.5-0.1-16.7
		c-3.9-14.7-0.7-29.5-1.8-44.2c0-0.5,0.1-1,0.3-2.2c9.4,7,18.5,13.6,27.7,20.5c-4.4,7.4-8.8,14.6-12.8,21.9
		c-1.1,2.1-1.5,4.7-1.9,7.1c-1.1,7.2-2.1,14.4-3.1,21.6c-0.3,1.9-0.3,3.9-0.7,5.9c-1,5.2-1.5,10.5-3.3,15.4c-0.9,2.5-3.9,4.9-6.5,6
		c-2.3,1-3.6,2.1-4.5,4.3c-3.5,8.3-8.5,15.6-15.5,21.5c-4.3,3.6-4.5,9.9-0.1,13.3c2.3,1.9,5.2,3.3,8,4.2
		c16.5,5.5,33.2,10.6,49.7,16.2c5.4,1.8,10.7,4.3,15.4,7.4c8.8,6,12.9,14.8,12.3,25.4c-0.4,7.8-1.4,15.6-2.4,23.4
		c-0.2,1.5-1.6,3.4-3,4.1c-31.5,16.8-64.8,26.1-100.8,26.8c-36.5,0.6-70.8-6.7-103.4-22.6c-10.2-5-10.4-4.9-11.9-16.2
		c-0.7-5.4-1-10.9-1.1-16.3c-0.2-12.9,6-22.4,17.5-27.6c9.3-4.3,19.1-7.4,28.7-10.7c10.2-3.4,20.6-6.4,30.8-9.7
		c2.3-0.7,4.5-1.7,6.5-3c6-3.8,6.6-11.3,1.5-16c-6.3-5.8-10.8-12.8-14.3-20.5c-0.7-1.5-2.4-2.9-4-3.6c-6.5-2.8-9.5-8.4-9.6-14.5
		c-0.2-9-3-17.5-4-26.3c-0.1-1.2-0.5-2.4-0.2-3.6c1.2-6.4-1.7-11.5-5.1-16.6C133.6,69.5,130.3,63.7,126.7,57.8z"/>
	<path id="XMLID_39_" d="M77.2,237.2c-13.1,0.4-25.8-1-38-4.9c-11-3.5-21.5-8.4-32.3-12.5c-3.2-1.2-4.8-3.3-5-6.8
		c-0.2-4.9-1.1-9.8-1.2-14.7c-0.2-9.5,4.4-16.6,13.1-20c12.3-4.7,24.9-8.5,37.3-12.8c2.6-0.9,5.3-1.7,7.8-2.9
		c5.6-2.8,6.2-8,1.9-12.5c-2.7-2.9-5.1-6.1-7.2-9.5c-2.1-3.4-3.6-6.8-7.7-8.9c-4.1-2.1-4.5-7.2-5-11.6c-0.3-3.3-0.8-6.5-1.3-9.7
		c-0.3-2-1.2-4-1-5.9c1.1-7.7-3.1-13.4-6.9-19.3c-1.5-2.3-2.9-4.7-4.4-7.2c1.1-0.9,2-1.7,2.9-2.3c15.7-11.5,31.4-22.9,47-34.5
		c2.1-1.6,3.5-2,5.8-0.2c7.7,6,15.6,11.6,23.3,17.5c1.1,0.9,2.1,2.7,2.2,4.2c0.2,9.7,0.2,19.5,0,29.2c-0.1,5-0.9,9.9-1.3,14.9
		c-0.2,2.5,0.5,4,3.5,4c2.9,0,3.7-1.3,3.6-3.9c-0.5-12.8-0.9-25.6-1.4-38.4c0-1.4,0-2.8,0-5.1c7.1,5.2,13.3,9.8,19.9,14.7
		c-3.1,5.2-6,10.2-9,15.2c-0.6,1-1.4,2.1-1.6,3.2c-0.9,7.9-1.8,15.8-2.5,23.6c-0.6,6-1.6,11.7-8.5,13.9c-0.8,0.3-1.2,1.9-1.9,2.8
		c-3.6,5-7.1,10.2-11,15c-2.4,2.9-2.8,7.3,0.3,9.7c1.7,1.3,3.7,2.2,5.7,2.8c11.4,3.7,22.8,7.4,34.2,11c1.3,0.4,2.6,1,4.8,1.8
		c-10.2,3.4-19.5,6.3-28.7,9.6c-6,2.1-12,4.4-17.7,7.2c-13.1,6.5-20,17.1-19.7,32C77.3,229.3,77.2,233,77.2,237.2z"/>
	<path id="XMLID_38_" d="M323.9,236.7c0-6.1,0.5-12.3-0.1-18.3c-1.2-11.1-7.6-19.4-17.4-23.8c-12.5-5.7-25.8-9.9-38.7-14.7
		c-2.7-1-5.6-1.8-9.4-3c2.1-0.9,3.4-1.6,4.8-2c11.5-3.7,23-7.4,34.5-11.1c5.9-1.9,7.7-4.1,7.4-8.9c-0.1-1.4-1-2.9-1.9-4
		c-2.5-3.4-5.4-6.6-7.8-10c-2.3-3.3-3.7-7-7.8-9.4c-2.7-1.6-3.7-6.6-4.8-10.3c-1.1-3.9-1.4-8-1.9-12.1c-0.4-3.3-0.5-6.6-1-9.9
		c-0.3-2-0.7-4.2-1.6-5.9c-2.9-5.2-6.2-10.2-9.4-15.6c3-2.2,5.8-4.3,8.5-6.3c14-10.2,28-20.4,41.9-30.7c1.9-1.4,3.2-1.6,5.2-0.1
		c7.8,6,15.9,11.7,23.7,17.7c1.1,0.9,2.1,2.8,2.1,4.2c0.2,9.6,0.2,19.2,0,28.8c-0.1,4.8-0.9,9.7-1.3,14.5c-0.2,2.6-0.1,4.7,3.6,4.7
		c3.5,0,3.4-2.1,3.4-4.5c-0.4-12.6-0.9-25.1-1.3-37.7c0-1.4,0-2.8,0-5.2c7,5.1,13.2,9.8,19.8,14.6c-3.1,5.3-6.2,10.4-9.1,15.6
		c-0.9,1.6-1.2,3.7-1.4,5.6c-0.5,3.6-0.6,7.1-1,10.7c-0.5,3.9-1.1,7.8-1.6,11.7c-0.7,5.3-2.1,10.2-8,12.3c-1,0.4-1.6,1.8-2.3,2.9
		c-3.6,4.9-6.8,10.1-10.7,14.7c-3,3.5-3.4,7.9,0.6,10.4c2.9,1.8,6.3,2.9,9.5,4c11.9,4.1,24.1,7.6,35.9,12.1
		c11.2,4.3,15.3,11.9,14.5,23.9c-0.2,2.9-0.8,5.8-0.7,8.7c0.2,5.8-2.9,8.6-7.8,10.9c-20.2,9.6-41.1,16-63.7,16.2
		c-1.1,0-2.1,0-3.2-0.1C324.9,237.2,324.7,237,323.9,236.7z"/>
</g>
</svg>
