<?xml version="1.0" encoding="utf-8"?>
<!-- Generator: Adobe Illustrator 19.0.0, SVG Export Plug-In . SVG Version: 6.00 Build 0)  -->
<svg version="1.1" id="Layer_1" xmlns="http://www.w3.org/2000/svg" xmlns:xlink="http://www.w3.org/1999/xlink" x="0px" y="0px"
	 viewBox="0 0 265 261" style="enable-background:new 0 0 265 261;" xml:space="preserve">
<g id="XMLID_1_">
	<path id="XMLID_82_" d="M260.5,230.5c0,9.2,0,18.5,0,27.7c-85.3,0-170.7,0-256,0c0-9.2,0-18.5,0-27.7c1.4-2.3,3.5-3.2,6.2-3
		c2.4,0.2,4.8-0.1,7.2,0.1c1.7,0.1,2.2-0.6,2.2-2.2c-0.1-4.2,0-8.5,0-12.8c0-4.2,2.3-6.5,6.5-6.6c4.2,0,8.5-0.1,12.7,0
		c2,0.1,2.5-0.7,2.5-2.6c0-39.3,0-78.6,0-117.9c0-2.2-0.7-2.8-2.8-2.8c-9.6,0.1-19.2,0-28.9,0.1c-2.6,0-4.5-0.8-5.6-3.2
		c0-1.3,0-2.7,0-4c1.3-1.1,2.6-2.4,4-3.4c2.9-1.8,5.9-3.4,8.9-5.1c11-6.3,22.1-12.6,33.1-18.8C62.3,41.7,74.1,35,86,28.4
		c11.8-6.7,23.6-13.4,35.4-20.1c3.1-1.8,6.2-3.7,9.3-5.6c1.2,0,2.4,0,3.6,0c1.8,1.1,3.6,2.3,5.4,3.4c19.3,11,38.7,22,58.1,33
		c17.7,10,35.4,20,53.1,30.1c3.4,1.9,7.2,3.2,9.7,6.6c0,1.3,0,2.7,0,4c-1.2,2.4-3.2,3.2-5.8,3.2c-9.6-0.1-19.2,0-28.9-0.1
		c-2,0-2.6,0.6-2.6,2.6c0,39.4,0,78.9,0,118.3c0,2,0.8,2.4,2.5,2.4c4.3-0.1,8.6-0.1,13,0c3.9,0.1,6.2,2.5,6.2,6.4
		c0,4.4,0,8.8,0,13.2c0,1.4,0.5,2,2,1.9c2.5-0.1,4.9,0.1,7.4-0.1C257,227.3,259,228.3,260.5,230.5z M30.7,71.7
		c0,0.2,0.1,0.3,0.1,0.5c67.8,0,135.6,0,203.8,0c-0.4-0.5-0.5-0.7-0.7-0.8c-16.4-9.3-32.9-18.5-49.3-27.8
		C167.8,34,150.9,24.4,134,14.9c-0.7-0.4-2.1-0.5-2.8-0.1c-14.9,8.3-29.7,16.8-44.6,25.2c-13.2,7.5-26.4,14.9-39.5,22.4
		C41.6,65.4,36.2,68.6,30.7,71.7z M111.3,144.6c0-19.5,0-39.1,0-58.6c0-3.1,0-3.1-3.1-3.1c-6.9,0-13.9,0-20.8,0
		c-3,0-3.2,0.2-3.2,3.1c0,39.1,0,78.3,0,117.4c0,2.1,0.8,2.7,2.7,2.7c7.2-0.1,14.3,0,21.5,0c3,0,3,0,3-2.9
		C111.3,183.6,111.3,164.1,111.3,144.6z M180.8,144.6c0-19.5,0-38.9,0-58.4c0-3.3-0.1-3.4-3.4-3.4c-6.9,0-13.9,0-20.8,0
		c-2.8,0-2.9,0.1-2.9,2.9c0,39.2,0,78.4,0,117.7c0,2.2,0.8,2.8,2.8,2.7c7.2-0.1,14.3-0.1,21.5,0c2.2,0,2.9-0.6,2.9-2.9
		C180.8,183.7,180.8,164.1,180.8,144.6z M73.8,144.6c0-0.5,0-1,0-1.6c0-19.1,0-38.2,0-57.2c0-2.1-0.5-3.1-2.9-3
		c-4.1,0.2-8.2,0.1-12.3,0.1c-6.5,0-6.5,0-6.5,6.4c0,37.9,0,75.7,0,113.6c0,3.2,0,3.2,3.2,3.2c5.1,0,10.1,0,15.2,0
		c3.2,0,3.3,0,3.3-3.4C73.8,183.3,73.8,164,73.8,144.6z M191.2,144.6c0,19.6,0,39.2,0,58.8c0,2,0.6,2.7,2.6,2.7
		c5.6-0.1,11.2-0.1,16.8,0c1.7,0,2.3-0.6,2.3-2.3c0-39.4,0-78.9,0-118.3c0-2.1-0.8-2.7-2.8-2.6c-5.1,0.1-10.3,0-15.4,0
		c-3.5,0-3.5,0-3.5,3.4C191.2,105.7,191.2,125.2,191.2,144.6z M121.7,144.6c0,19.6,0,39.2,0,58.8c0,2.1,0.6,2.7,2.7,2.7
		c5.5-0.1,11-0.1,16.6,0c2,0,2.5-0.7,2.5-2.6c0-39.2,0-78.5,0-117.7c0-2.9-0.1-3-3.1-3c-5.1,0-10.1,0-15.2,0c-3.4,0-3.4,0-3.4,3.3
		C121.7,105.7,121.7,125.1,121.7,144.6z M132.4,249.3c38.2,0,76.4,0,114.6,0c0.6,0,1.2,0,1.8,0c1.4,0.1,1.9-0.6,1.8-1.9
		c0-1.8,0-3.6,0-5.4c0-4.2,0.5-4-4-4c-76.1,0-152.1,0-228.2,0c-0.7,0-1.5,0-2.2,0c-1.2,0-1.8,0.5-1.7,1.8c0,2,0,4,0,6
		c0,3.5,0,3.5,3.4,3.5C56,249.3,94.2,249.3,132.4,249.3z M132.5,227.6c32.9,0,65.8,0,98.7,0c0.4,0,0.7,0,1.1,0
		c1.6,0.1,2.3-0.5,2.3-2.2c-0.1-1.7,0-3.4,0-5.1c0-3.8,0-3.8-3.7-3.8c-65.6,0-131.1,0-196.7,0c-0.5,0-1,0-1.6,0
		c-1.5,0-2.2,0.6-2.2,2.1c0,1.9,0,3.7,0,5.6c0,3.3,0,3.4,3.4,3.4C66.7,227.6,99.6,227.6,132.5,227.6z"/>
	<path id="XMLID_65_" d="M132.6,61.2c-12.2,0-24.3,0-36.5,0c-2.1,0-4.1-0.3-5.2-2.3c-1.7-2.9-1.1-5.5,1.8-7.3
		c5.7-3.4,11.4-6.6,17.2-9.9c6.5-3.7,13-7.4,19.5-11.1c2-1.1,4.1-1.2,6-0.1c12,6.7,23.8,13.6,35.8,20.3c5.1,2.9,4.4,7.5,1.6,9.3
		c-1.1,0.7-2.8,0.9-4.2,0.9C156.6,61.3,144.6,61.2,132.6,61.2z M116.1,50.2c2.7,1.1,30.9,0.9,32.6-0.2c-5.1-2.9-10.1-5.7-15.1-8.5
		c-0.6-0.3-1.7-0.3-2.3,0.1C126.3,44.4,121.4,47.2,116.1,50.2z"/>
</g>
</svg>
