<?xml version="1.0" encoding="utf-8"?>
<!-- Generator: Adobe Illustrator 19.0.0, SVG Export Plug-In . SVG Version: 6.00 Build 0)  -->
<svg version="1.1" id="Layer_1" xmlns="http://www.w3.org/2000/svg" xmlns:xlink="http://www.w3.org/1999/xlink" x="0px" y="0px"
	 viewBox="0 0 32.1 23.2" style="enable-background:new 0 0 32.1 23.2;" xml:space="preserve">
<style type="text/css">
	.st0{fill:#FFFFFF;}
</style>
<g id="XMLID_1_">
	<g id="XMLID_17_">
		<g id="XMLID_18_">
			<path id="XMLID_20_" class="st0" d="M27.6,8.2C26.7,5.8,24.3,4,21.5,4c-0.6,0-1.3,0.1-1.8,0.3C18.1,1.7,15.2,0,12,0
				C7.1,0,3.1,3.9,3,8.8c-1.8,1-3,3-3,5.2c0,3.3,2.7,6,6,6h6v-2H6c-2.2,0-4-1.8-4-4c0-1.9,1.3-3.5,3.1-3.9C5,9.7,5,9.4,5,9
				c0-3.9,3.1-7,7-7c3.2,0,5.8,2.1,6.7,5c0.8-0.6,1.7-1,2.8-1c2.3,0,4.2,1.8,4.5,4h0c2.2,0,4,1.8,4,4c0,2.2-1.8,4-4,4h-6v2h6
				c3.3,0,6-2.7,6-6C32,11.2,30.1,8.9,27.6,8.2z"/>
			<polygon id="XMLID_19_" class="st0" points="16,9 11,15 14,15 14,23 18,23 18,15 21,15 			"/>
		</g>
	</g>
	<g id="XMLID_16_">
	</g>
	<g id="XMLID_15_">
	</g>
	<g id="XMLID_14_">
	</g>
	<g id="XMLID_13_">
	</g>
	<g id="XMLID_12_">
	</g>
	<g id="XMLID_11_">
	</g>
	<g id="XMLID_10_">
	</g>
	<g id="XMLID_9_">
	</g>
	<g id="XMLID_8_">
	</g>
	<g id="XMLID_7_">
	</g>
	<g id="XMLID_6_">
	</g>
	<g id="XMLID_5_">
	</g>
	<g id="XMLID_4_">
	</g>
	<g id="XMLID_3_">
	</g>
	<g id="XMLID_2_">
	</g>
</g>
</svg>
